PathFileType	4	(X/Y/Z)	S:\OneDrive - The University of Tokyo\ìåëÂéˆã∆\ÉoÉCÉÅÉJ\ë™íË\hirabayashi_2\Trimmed\Trimmed_Trimmed_ShSs3-51P.trc
DataRate	CameraRate	NumFrames	NumMarkers	Units	OrigDataRate	OrigDataStartFrame	OrigNumFrames
200.00	200.00	      6	51	mm	200.00	645	      1718
Frame#	Time	handRI			handRO			wrRI			wrRO			elbRI			elbRO			shRF			shRU			shRB			handLI			handLO			wrLI			wrLO			elbLI			elbLO			shLF			shLU			shLB			toeR			baRI			baRO			heelR			anRI			anRO			knRI			knRO			troR			toeL			baLI			baLO			heelL			anLI			anLO			knLI			knLO			troL			head			earR			earL			clav			c7			ribR			ribL			xiph			t12			ASISR			ASISL			PSISR			PSISL			ThR			ThL			
		X1	Y1	Z1	X2	Y2	Z2	X3	Y3	Z3	X4	Y4	Z4	X5	Y5	Z5	X6	Y6	Z6	X7	Y7	Z7	X8	Y8	Z8	X9	Y9	Z9	X10	Y10	Z10	X11	Y11	Z11	X12	Y12	Z12	X13	Y13	Z13	X14	Y14	Z14	X15	Y15	Z15	X16	Y16	Z16	X17	Y17	Z17	X18	Y18	Z18	X19	Y19	Z19	X20	Y20	Z20	X21	Y21	Z21	X22	Y22	Z22	X23	Y23	Z23	X24	Y24	Z24	X25	Y25	Z25	X26	Y26	Z26	X27	Y27	Z27	X28	Y28	Z28	X29	Y29	Z29	X30	Y30	Z30	X31	Y31	Z31	X32	Y32	Z32	X33	Y33	Z33	X34	Y34	Z34	X35	Y35	Z35	X36	Y36	Z36	X37	Y37	Z37	X38	Y38	Z38	X39	Y39	Z39	X40	Y40	Z40	X41	Y41	Z41	X42	Y42	Z42	X43	Y43	Z43	X44	Y44	Z44	X45	Y45	Z45	X46	Y46	Z46	X47	Y47	Z47	X48	Y48	Z48	X49	Y49	Z49	X50	Y50	Z50	X51	Y51	Z51	

645	3.220	-583.93011	1579.68274	1634.02856	-606.50708	1673.71326	1643.54102	-621.26929	1578.75891	1700.25696	-687.57593	1634.55725	1689.16870	-720.12585	1527.40601	1945.12988	-689.51196	1600.37830	1936.77856	-837.80341	1552.07434	2164.01782	-810.65381	1650.41516	2196.46313	-739.12543	1652.75195	2279.21338	-1241.86316	1643.84058	1634.83228	-1207.05066	1740.13818	1663.48071	-1202.76709	1650.18970	1706.36914	-1135.74475	1690.60693	1686.97815	-1101.76306	1571.32886	1944.66113	-1125.84094	1653.43958	1944.86340	-979.78314	1578.41821	2163.48584	-996.67694	1668.55310	2206.84131	-1068.84180	1680.97046	2274.61841	-858.43042	1710.46130	3845.20020	-902.58820	1718.35632	3773.80591	-819.49744	1762.85742	3774.32178	-888.17944	1871.50488	3634.96948	-924.32751	1779.34460	3622.12085	-824.46033	1815.30017	3644.52905	-904.16425	1674.14038	3261.76245	-787.96558	1686.79688	3256.72852	-744.17950	1579.58801	2823.16992	-964.05634	1707.14294	3830.45483	-925.40240	1715.14954	3758.75317	-1007.32947	1768.65076	3771.13940	-935.28632	1870.83667	3628.59058	-914.13916	1771.45166	3627.52319	-1003.92596	1826.04236	3647.82861	-938.69739	1676.79614	3244.45166	-1051.23364	1703.71423	3239.00000	-1093.21423	1623.32800	2816.37744	-903.96027	1819.77881	2076.37964	-813.36621	1662.13867	2109.87134	-989.27460	1671.45508	2096.84888	-906.20251	1491.09131	2216.12427	-904.65356	1672.43091	2225.40063	-753.05640	1491.20789	2544.30835	-1085.06848	1528.18677	2558.23022	-915.95758	1410.74683	2424.80493	-901.17859	1633.62646	2553.86743	-797.26685	1457.67078	2759.18726	-1075.32104	1492.10071	2735.93530	-850.90417	1625.03015	2684.64868	-950.50500	1641.35168	2681.74805	-772.67450	1674.44946	3001.49951	-1062.45264	1702.32251	3001.19336	
646	3.225	-583.91046	1579.61157	1633.93506	-606.54089	1673.65942	1643.51294	-621.27905	1578.60767	1700.08472	-687.54913	1634.50537	1689.13159	-720.26849	1527.13977	1944.95764	-689.95813	1599.52356	1936.53064	-837.87640	1551.85901	2163.90039	-810.55835	1649.81409	2196.33521	-739.15466	1652.26819	2279.08228	-1241.92822	1643.81799	1634.64136	-1207.00085	1740.07275	1663.30896	-1202.75757	1649.93750	1705.98608	-1135.84180	1690.44153	1686.71545	-1101.81702	1571.09424	1944.39636	-1125.77710	1653.15442	1944.65759	-979.71234	1577.84399	2163.25317	-996.48755	1668.07654	2206.40576	-1068.68835	1680.58545	2274.24268	-859.17700	1711.67493	3844.92065	-903.18439	1719.33887	3773.49219	-820.18994	1764.03577	3774.16968	-888.53485	1872.43054	3634.54858	-916.45459	1773.08801	3625.99976	-824.87256	1815.99255	3644.12524	-904.52460	1674.90466	3261.59131	-788.23138	1687.51624	3256.40991	-744.34161	1579.44116	2823.10278	-964.67059	1709.47034	3830.12695	-926.01508	1716.16248	3758.35449	-1008.15350	1769.96521	3770.65161	-935.50470	1871.83350	3628.15454	-904.36438	1790.76953	3615.36841	-1004.35858	1827.10779	3647.42285	-939.06354	1677.10632	3244.17725	-1051.51648	1704.35986	3238.45654	-1093.23779	1623.55469	2816.01636	-903.92200	1819.40527	2076.14087	-813.10095	1661.68640	2109.68188	-989.24432	1671.15723	2096.58154	-906.28607	1490.79968	2216.05005	-904.56427	1672.14392	2225.20557	-753.27539	1490.79993	2544.22925	-1085.22046	1528.11707	2558.06470	-916.34589	1410.42419	2424.74731	-901.13849	1633.58350	2553.74512	-797.42877	1457.57593	2759.17676	-1075.43835	1492.20508	2735.83423	-850.92902	1624.88452	2684.42041	-950.42413	1641.28186	2681.48901	-772.79767	1674.52344	3001.28369	-1062.56482	1702.68896	3000.82251	
647	3.230	-583.85352	1579.55347	1633.80176	-606.48145	1673.61597	1643.47852	-621.24493	1578.43982	1699.89575	-687.46619	1634.50867	1689.10156	-720.37872	1526.91797	1944.74683	-690.00360	1599.18542	1936.37866	-837.98602	1551.61694	2163.70044	-810.52515	1649.22852	2196.10107	-739.08911	1651.67432	2278.99707	-1241.99585	1643.79517	1634.44043	-1206.92224	1739.96301	1663.19531	-1202.54968	1649.23120	1705.52795	-1135.89807	1690.26807	1686.51379	-1101.99536	1570.91089	1944.09167	-1125.74487	1652.98230	1944.46277	-979.69733	1577.12256	2162.98999	-996.28253	1667.48584	2206.12939	-1068.58899	1680.28467	2274.00830	-859.98120	1712.57117	3844.54736	-903.52386	1720.26489	3773.10571	-820.72205	1764.66968	3773.84863	-888.84393	1873.40283	3634.06055	-917.04150	1774.27551	3625.55176	-825.39575	1816.81702	3643.61133	-904.85358	1675.60791	3261.28833	-788.61823	1687.93213	3256.07324	-744.45490	1579.24890	2822.99219	-965.37158	1710.35449	3829.83569	-926.69879	1717.37598	3758.08594	-1008.64087	1770.96497	3770.25586	-936.02948	1873.02087	3627.66968	-894.37927	1810.58008	3603.07324	-1004.67487	1828.09070	3647.13721	-939.30542	1677.41260	3243.78955	-1051.86157	1705.02063	3237.92456	-1093.31165	1623.79773	2815.63794	-903.83484	1818.97424	2075.94775	-813.02545	1661.10938	2109.51196	-989.25183	1670.88159	2096.40112	-906.45758	1490.35974	2215.88477	-904.51331	1671.70154	2225.04419	-753.46307	1490.39624	2544.09473	-1085.41333	1528.13574	2557.92798	-916.87463	1410.07471	2424.71729	-901.13055	1633.35815	2553.57764	-797.63812	1457.41394	2759.11719	-1075.60413	1492.30994	2735.75830	-850.93927	1624.73132	2684.40527	-950.03912	1641.12708	2681.21851	-772.88806	1674.58057	3001.08911	-1062.81885	1703.05676	3000.36182	
648	3.235	-583.72321	1579.54443	1633.68567	-606.45612	1673.57837	1643.46643	-621.15546	1578.26648	1699.65588	-687.34375	1634.50366	1689.05005	-720.45654	1526.63513	1944.50684	-690.02570	1598.98389	1936.23828	-838.12354	1551.05396	2163.50098	-810.55487	1648.90234	2195.97485	-739.11896	1651.08008	2278.91943	-1242.06531	1643.77258	1634.23242	-1206.83923	1739.83203	1663.07019	-1202.53943	1648.94397	1705.22302	-1136.00525	1690.12646	1686.32898	-1102.08826	1570.78003	1943.92224	-1123.54016	1653.08313	1944.59412	-979.75342	1576.66675	2162.75244	-996.16992	1667.08289	2205.97070	-1068.47717	1679.90845	2273.83472	-860.66272	1713.34302	3843.99072	-904.52032	1721.51184	3772.57959	-821.43652	1765.45752	3773.49976	-888.94006	1874.08228	3633.42285	-915.61395	1774.13806	3626.25757	-825.82880	1817.75891	3643.11743	-905.12939	1676.13220	3260.83643	-789.02612	1688.36768	3255.82495	-744.68726	1579.13354	2822.90552	-966.32159	1710.39380	3829.28442	-927.27417	1718.17810	3757.61963	-1009.12518	1772.09924	3769.81177	-936.45178	1873.89404	3627.00732	-925.06714	1782.69519	3620.87622	-1005.01947	1829.12183	3646.76709	-939.55029	1678.11353	3243.39893	-1052.08374	1705.49695	3237.71362	-1093.39050	1624.04980	2815.29321	-903.81976	1818.44995	2075.74878	-813.19220	1660.52673	2109.46338	-989.22968	1670.60352	2096.25171	-906.67859	1489.95886	2215.77173	-904.52112	1671.29761	2224.94263	-753.61011	1490.00085	2543.99683	-1085.55847	1528.08594	2557.69922	-917.31720	1409.66138	2424.66919	-901.16254	1633.10645	2553.32520	-797.83484	1457.30640	2759.02808	-1075.78491	1492.40051	2735.64868	-851.01111	1624.57715	2684.17822	-950.08136	1641.05579	2680.97192	-772.96326	1674.61267	3000.92969	-1063.06348	1703.50439	3000.01050	
649	3.240	-583.49792	1579.51746	1633.62683	-606.38739	1673.57117	1643.44812	-621.06976	1578.13196	1699.46033	-687.20917	1634.48096	1689.03125	-720.54199	1526.31409	1944.33667	-690.06500	1598.85400	1936.13855	-838.24963	1550.37683	2163.33716	-810.66193	1648.29736	2195.90771	-739.18781	1650.36914	2278.79980	-1242.13525	1643.75049	1634.01990	-1206.80737	1739.72754	1663.05725	-1202.61523	1648.74658	1705.00793	-1136.16943	1690.03333	1686.22766	-1102.17810	1570.55969	1943.71606	-1123.52942	1652.90161	1944.42236	-979.84119	1576.34729	2162.56323	-996.18091	1666.78955	2205.79102	-1068.41711	1679.57581	2273.72095	-861.39124	1714.09802	3843.31763	-905.40900	1722.48071	3772.39331	-821.98407	1766.26392	3773.00269	-889.46216	1874.72083	3633.22095	-916.08221	1775.10071	3625.81519	-826.11975	1818.51318	3642.68628	-905.57623	1676.34607	3260.32202	-789.39465	1688.50049	3255.67700	-744.85956	1579.01367	2822.74854	-967.12500	1711.49512	3828.84692	-927.77979	1719.11792	3757.24951	-1009.67542	1773.17065	3769.31836	-936.87036	1874.44873	3626.52881	-925.76703	1782.69580	3620.65527	-1005.42059	1830.03381	3646.06714	-939.72559	1678.80054	3243.16260	-1052.38501	1706.20398	3237.46631	-1093.42188	1624.20740	2815.02271	-903.79919	1817.98328	2075.58154	-813.61731	1659.92285	2109.40088	-989.19318	1670.29224	2096.01343	-906.95612	1489.39490	2215.62378	-904.60461	1670.73071	2224.80542	-753.76508	1489.59180	2543.77881	-1085.71350	1528.06445	2557.50366	-917.61847	1409.37463	2424.53955	-901.13977	1632.89978	2553.11328	-798.01331	1457.21179	2758.93750	-1075.99097	1492.51306	2735.55542	-851.07513	1624.42285	2683.92188	-950.17700	1640.96167	2680.72559	-773.03217	1674.62976	3000.80396	-1063.30701	1703.98511	2999.63135	
650	3.245	-583.31195	1579.52417	1633.54639	-606.26428	1673.54956	1643.47717	-621.06000	1577.92920	1699.29004	-687.02258	1634.43518	1689.06445	-720.51819	1525.96252	1944.13562	-689.99451	1598.64758	1936.04700	-838.33032	1549.41296	2163.17285	-810.72980	1647.71765	2195.78857	-739.31116	1649.70557	2278.70044	-1242.20471	1643.72925	1633.80432	-1206.78784	1739.65454	1663.15662	-1202.63208	1648.43909	1704.77356	-1136.38525	1689.83960	1686.20190	-1102.22986	1570.34424	1943.53491	-1123.51807	1652.69165	1944.29993	-979.91602	1576.01428	2162.42261	-996.23553	1666.66260	2205.57202	-1068.38293	1679.27808	2273.60229	-861.93054	1714.60791	3842.93506	-905.93390	1722.99133	3771.99023	-822.62024	1766.89832	3772.54956	-890.60809	1876.32117	3631.89575	-917.49567	1773.21289	3623.65625	-826.52228	1818.98523	3642.38599	-906.02527	1676.64734	3259.90112	-789.75073	1688.62195	3255.56006	-745.06000	1578.91760	2822.54443	-967.71655	1712.42957	3828.45972	-928.45905	1719.92175	3756.88647	-1010.33405	1774.17908	3768.92603	-935.79950	1875.84180	3626.23486	-927.58051	1782.76196	3619.92871	-1005.61194	1830.74365	3645.69580	-939.82697	1679.20740	3242.99780	-1052.66272	1706.77039	3237.11621	-1093.43176	1624.19519	2814.83618	-903.57880	1817.54236	2075.38037	-813.76593	1659.47217	2109.20850	-989.16425	1669.77771	2095.77490	-907.17175	1488.81873	2215.44458	-904.71997	1670.15173	2224.65601	-753.95111	1489.13660	2543.56104	-1085.87061	1528.08936	2557.24805	-917.89209	1409.05310	2424.38745	-901.17249	1632.72192	2552.84497	-798.22040	1457.08813	2758.80737	-1076.19202	1492.55249	2735.44336	-851.13245	1624.31970	2683.68945	-950.25751	1640.91699	2680.50415	-773.12531	1674.66882	3000.64648	-1063.49158	1704.34546	2999.19092	
